<?xml version="1.0" encoding="iso-8859-1"?>
<!-- Generator: Adobe Illustrator 19.0.0, SVG Export Plug-In . SVG Version: 6.00 Build 0)  -->
<svg version="1.1" id="Layer_1" xmlns="http://www.w3.org/2000/svg" xmlns:xlink="http://www.w3.org/1999/xlink" x="0px" y="0px"
	 viewBox="0 0 512 512" style="enable-background:new 0 0 512 512;" xml:space="preserve">
<path style="fill:#4F5AA8;" d="M504.745,195.319C477.496,83.228,376.476,0,256,0C114.616,0,0,114.616,0,256
	c0,120.476,83.228,221.496,195.319,248.745L504.745,195.319z"/>
<path style="fill:#243870;" d="M512,256c0-20.91-2.526-41.226-7.255-60.681l-126.31-126.31l-244.87,373.983l61.754,61.754
	C214.774,509.474,235.09,512,256,512C397.384,512,512,397.384,512,256z"/>
<polygon style="fill:#F2F2F2;" points="233.739,433.48 233.739,78.521 378.435,111.304 378.435,400.696 "/>
<polygon style="fill:#FFFFFF;" points="256,433.48 256,78.521 133.565,111.304 133.565,400.696 "/>
<polygon style="fill:#85DC79;" points="356.174,378.435 356.174,133.565 256,133.565 211.478,256 256,378.435 "/>
<rect x="155.826" y="133.565" style="fill:#AFF078;" width="100.174" height="244.87"/>
<polygon style="fill:#B2B2B2;" points="378.435,445.217 378.435,400.696 256,400.696 221.991,422.957 256,445.217 "/>
<rect x="133.565" y="400.696" style="fill:#CCCCCC;" width="122.435" height="44.522"/>
<polygon style="fill:#B2B2B2;" points="378.435,111.304 378.435,66.783 256,66.783 221.991,89.043 256,111.304 "/>
<rect x="133.565" y="66.783" style="fill:#CCCCCC;" width="122.435" height="44.522"/>
<path style="fill:#4F5AA8;" d="M256,155.826l-25.134,77.913L256,356.892l60.41-73.952c10.94-13.415,17.503-30.541,17.503-49.201
	C333.913,190.709,299.03,155.826,256,155.826z"/>
<g>
	<path style="fill:#4A75C3;" d="M178.087,233.739c0,18.66,6.563,35.785,17.503,49.201L256,356.892V155.826
		C212.97,155.826,178.087,190.709,178.087,233.739z"/>
	<path style="fill:#4A75C3;" d="M256,178.087l-31.456,55.652L256,289.391c30.736,0,55.652-24.917,55.652-55.652
		S286.736,178.087,256,178.087z"/>
</g>
<path style="fill:#6FAEE8;" d="M200.348,233.739c0,30.736,24.917,55.652,55.652,55.652V178.087
	C225.264,178.087,200.348,203.004,200.348,233.739z"/>
<path style="fill:#F7EDBC;" d="M256,200.348l-18.874,33.391L256,267.13c18.442,0,33.391-14.949,33.391-33.391
	S274.442,200.348,256,200.348z"/>
<path style="fill:#FFFFFF;" d="M222.609,233.739c0,18.442,14.949,33.391,33.391,33.391v-66.783
	C237.559,200.348,222.609,215.298,222.609,233.739z"/>
<g>
</g>
<g>
</g>
<g>
</g>
<g>
</g>
<g>
</g>
<g>
</g>
<g>
</g>
<g>
</g>
<g>
</g>
<g>
</g>
<g>
</g>
<g>
</g>
<g>
</g>
<g>
</g>
<g>
</g>
</svg>
